<mxfile host="Electron" modified="2024-01-14T18:55:07.331Z" agent="Mozilla/5.0 (X11; Linux x86_64) AppleWebKit/537.36 (KHTML, like Gecko) draw.io/22.1.18 Chrome/120.0.6099.199 Electron/28.1.2 Safari/537.36" etag="aTdiD8X42lj63-4YaXNQ" version="22.1.18" type="device" pages="2">
  <diagram id="MqTzfQ6ZBjLNwtowCZSs" name="Page-1">
    <mxGraphModel dx="1434" dy="843" grid="1" gridSize="10" guides="1" tooltips="1" connect="1" arrows="1" fold="1" page="1" pageScale="1" pageWidth="827" pageHeight="1169" math="0" shadow="0">
      <root>
        <mxCell id="0" />
        <mxCell id="1" parent="0" />
        <mxCell id="GD-cVi2Gbzgj9U0HTj10-3" value="&lt;p style=&quot;margin:0px;margin-top:6px;text-align:center;&quot;&gt;&lt;b&gt;Perception&lt;/b&gt;&lt;/p&gt;&lt;hr&gt;&lt;p style=&quot;text-align: center; margin: 0px 0px 0px 8px;&quot;&gt;&lt;u&gt;Provided Interfaces:&lt;/u&gt;&lt;/p&gt;&lt;p style=&quot;text-align: center; margin: 0px 0px 0px 8px;&quot;&gt;&lt;u&gt;&lt;br&gt;&lt;/u&gt;&lt;/p&gt;&lt;p style=&quot;margin: 0px 0px 0px 8px;&quot;&gt;Array of relative cone&amp;nbsp;&lt;span style=&quot;background-color: initial;&quot;&gt;coordinates&lt;/span&gt;&lt;/p&gt;&lt;p style=&quot;margin: 0px 0px 0px 8px;&quot;&gt;&lt;span style=&quot;background-color: initial;&quot;&gt;&lt;br&gt;&lt;/span&gt;&lt;/p&gt;&lt;p style=&quot;text-align: center; margin: 0px 0px 0px 8px;&quot;&gt;&lt;span style=&quot;background-color: initial;&quot;&gt;&lt;u&gt;Required Interfaces:&lt;/u&gt;&lt;/span&gt;&lt;/p&gt;&lt;p style=&quot;text-align: center; margin: 0px 0px 0px 8px;&quot;&gt;&lt;span style=&quot;background-color: initial;&quot;&gt;&lt;u&gt;&lt;br&gt;&lt;/u&gt;&lt;/span&gt;&lt;/p&gt;&lt;p style=&quot;margin: 0px 0px 0px 8px;&quot;&gt;Spatial environment point cloud&lt;/p&gt;" style="align=left;overflow=fill;html=1;dropTarget=0;" parent="1" vertex="1">
          <mxGeometry x="270" y="310" width="230" height="150" as="geometry" />
        </mxCell>
        <mxCell id="GD-cVi2Gbzgj9U0HTj10-4" value="" style="shape=component;jettyWidth=8;jettyHeight=4;" parent="GD-cVi2Gbzgj9U0HTj10-3" vertex="1">
          <mxGeometry x="1" width="20" height="20" relative="1" as="geometry">
            <mxPoint x="-24" y="4" as="offset" />
          </mxGeometry>
        </mxCell>
        <mxCell id="GD-cVi2Gbzgj9U0HTj10-5" value="" style="line;strokeWidth=1;fillColor=none;align=left;verticalAlign=middle;spacingTop=-1;spacingLeft=3;spacingRight=3;rotatable=0;labelPosition=right;points=[];portConstraint=eastwest;strokeColor=inherit;" parent="1" vertex="1">
          <mxGeometry x="270" y="390" width="230" height="8" as="geometry" />
        </mxCell>
      </root>
    </mxGraphModel>
  </diagram>
  <diagram id="nRgn66_sbJ_OVzP7yXsz" name="Page-2">
    <mxGraphModel dx="1434" dy="843" grid="1" gridSize="10" guides="1" tooltips="1" connect="1" arrows="1" fold="1" page="1" pageScale="1" pageWidth="827" pageHeight="1169" math="0" shadow="0">
      <root>
        <mxCell id="0" />
        <mxCell id="1" parent="0" />
        <mxCell id="nqiEO6KenBjH2t6JOq-9-1" value="Pre-Processing" style="swimlane;fillColor=#a20025;strokeColor=#6F0000;fontColor=#ffffff;" parent="1" vertex="1">
          <mxGeometry x="290" y="280" width="200" height="200" as="geometry" />
        </mxCell>
        <mxCell id="nqiEO6KenBjH2t6JOq-9-2" style="edgeStyle=orthogonalEdgeStyle;rounded=0;orthogonalLoop=1;jettySize=auto;html=1;exitX=0.5;exitY=1;exitDx=0;exitDy=0;entryX=0.5;entryY=0;entryDx=0;entryDy=0;" parent="nqiEO6KenBjH2t6JOq-9-1" edge="1">
          <mxGeometry relative="1" as="geometry">
            <mxPoint x="100" y="80" as="sourcePoint" />
          </mxGeometry>
        </mxCell>
        <mxCell id="nqiEO6KenBjH2t6JOq-9-6" value="Cone Detection" style="swimlane;fillColor=#a20025;strokeColor=#6F0000;fontColor=#ffffff;" parent="1" vertex="1">
          <mxGeometry x="292" y="500" width="200" height="290" as="geometry" />
        </mxCell>
        <mxCell id="nqiEO6KenBjH2t6JOq-9-7" style="edgeStyle=orthogonalEdgeStyle;rounded=0;orthogonalLoop=1;jettySize=auto;html=1;exitX=0.5;exitY=1;exitDx=0;exitDy=0;entryX=0.5;entryY=0;entryDx=0;entryDy=0;" parent="nqiEO6KenBjH2t6JOq-9-6" edge="1">
          <mxGeometry relative="1" as="geometry">
            <mxPoint x="100" y="80" as="sourcePoint" />
          </mxGeometry>
        </mxCell>
        <mxCell id="nqiEO6KenBjH2t6JOq-9-9" style="edgeStyle=orthogonalEdgeStyle;rounded=0;orthogonalLoop=1;jettySize=auto;html=1;exitX=0.5;exitY=1;exitDx=0;exitDy=0;entryX=0.5;entryY=0;entryDx=0;entryDy=0;" parent="nqiEO6KenBjH2t6JOq-9-6" edge="1">
          <mxGeometry relative="1" as="geometry">
            <mxPoint x="100" y="140" as="sourcePoint" />
          </mxGeometry>
        </mxCell>
        <mxCell id="bltUUm7I2KrnP6nBMCpY-5" value="&lt;font style=&quot;font-size: 14px;&quot;&gt;Clustering&lt;/font&gt;" style="rounded=1;whiteSpace=wrap;html=1;" parent="nqiEO6KenBjH2t6JOq-9-6" vertex="1">
          <mxGeometry x="40" y="35" width="120" height="60" as="geometry" />
        </mxCell>
        <mxCell id="bltUUm7I2KrnP6nBMCpY-7" value="&lt;font style=&quot;font-size: 14px;&quot;&gt;Cone Reconstruction&lt;/font&gt;" style="rounded=1;whiteSpace=wrap;html=1;" parent="nqiEO6KenBjH2t6JOq-9-6" vertex="1">
          <mxGeometry x="40" y="125" width="120" height="60" as="geometry" />
        </mxCell>
        <mxCell id="bltUUm7I2KrnP6nBMCpY-8" value="" style="endArrow=classic;html=1;rounded=0;entryX=0.5;entryY=0;entryDx=0;entryDy=0;exitX=0.5;exitY=1;exitDx=0;exitDy=0;" parent="nqiEO6KenBjH2t6JOq-9-6" source="bltUUm7I2KrnP6nBMCpY-5" target="bltUUm7I2KrnP6nBMCpY-7" edge="1">
          <mxGeometry width="50" height="50" relative="1" as="geometry">
            <mxPoint x="89" y="50" as="sourcePoint" />
            <mxPoint x="139" as="targetPoint" />
          </mxGeometry>
        </mxCell>
        <mxCell id="bltUUm7I2KrnP6nBMCpY-13" value="&lt;font style=&quot;font-size: 14px;&quot;&gt;Cone Validation&lt;/font&gt;" style="rounded=1;whiteSpace=wrap;html=1;" parent="nqiEO6KenBjH2t6JOq-9-6" vertex="1">
          <mxGeometry x="40" y="210" width="120" height="60" as="geometry" />
        </mxCell>
        <mxCell id="bltUUm7I2KrnP6nBMCpY-32" style="edgeStyle=orthogonalEdgeStyle;rounded=0;orthogonalLoop=1;jettySize=auto;html=1;entryX=0.5;entryY=0;entryDx=0;entryDy=0;" parent="nqiEO6KenBjH2t6JOq-9-6" source="bltUUm7I2KrnP6nBMCpY-7" target="bltUUm7I2KrnP6nBMCpY-13" edge="1">
          <mxGeometry relative="1" as="geometry" />
        </mxCell>
        <mxCell id="bltUUm7I2KrnP6nBMCpY-1" value="" style="endArrow=classic;html=1;rounded=0;exitX=0.5;exitY=1;exitDx=0;exitDy=0;" parent="1" source="bltUUm7I2KrnP6nBMCpY-10" edge="1">
          <mxGeometry width="50" height="50" relative="1" as="geometry">
            <mxPoint x="390.5" y="240" as="sourcePoint" />
            <mxPoint x="390.5" y="320" as="targetPoint" />
            <Array as="points">
              <mxPoint x="391" y="290" />
            </Array>
          </mxGeometry>
        </mxCell>
        <mxCell id="bltUUm7I2KrnP6nBMCpY-2" value="&lt;font style=&quot;font-size: 14px;&quot;&gt;Velocity Correction&lt;/font&gt;" style="rounded=1;whiteSpace=wrap;html=1;" parent="1" vertex="1">
          <mxGeometry x="331" y="320" width="120" height="60" as="geometry" />
        </mxCell>
        <mxCell id="bltUUm7I2KrnP6nBMCpY-3" value="&lt;div style=&quot;font-size: 14px;&quot;&gt;Ground Removal&lt;/div&gt;" style="rounded=1;whiteSpace=wrap;html=1;" parent="1" vertex="1">
          <mxGeometry x="331" y="410" width="120" height="60" as="geometry" />
        </mxCell>
        <mxCell id="bltUUm7I2KrnP6nBMCpY-4" value="" style="endArrow=classic;html=1;rounded=0;" parent="1" edge="1">
          <mxGeometry width="50" height="50" relative="1" as="geometry">
            <mxPoint x="390.5" y="380" as="sourcePoint" />
            <mxPoint x="391" y="410" as="targetPoint" />
          </mxGeometry>
        </mxCell>
        <mxCell id="bltUUm7I2KrnP6nBMCpY-6" value="" style="endArrow=classic;html=1;rounded=0;exitX=0.5;exitY=1;exitDx=0;exitDy=0;entryX=0.5;entryY=0;entryDx=0;entryDy=0;" parent="1" source="bltUUm7I2KrnP6nBMCpY-3" target="bltUUm7I2KrnP6nBMCpY-5" edge="1">
          <mxGeometry width="50" height="50" relative="1" as="geometry">
            <mxPoint x="611" y="480" as="sourcePoint" />
            <mxPoint x="611" y="510" as="targetPoint" />
          </mxGeometry>
        </mxCell>
        <mxCell id="bltUUm7I2KrnP6nBMCpY-9" value="" style="ellipse;html=1;shape=endState;fillColor=#000000;strokeColor=#ff0000;" parent="1" vertex="1">
          <mxGeometry x="377" y="970" width="30" height="30" as="geometry" />
        </mxCell>
        <mxCell id="bltUUm7I2KrnP6nBMCpY-10" value="&lt;font style=&quot;font-size: 14px;&quot;&gt;Get LiDAR Point Cloud&lt;/font&gt;" style="rounded=1;whiteSpace=wrap;html=1;" parent="1" vertex="1">
          <mxGeometry x="330" y="180" width="120" height="60" as="geometry" />
        </mxCell>
        <mxCell id="bltUUm7I2KrnP6nBMCpY-35" value="" style="edgeStyle=orthogonalEdgeStyle;rounded=0;orthogonalLoop=1;jettySize=auto;html=1;" parent="1" source="bltUUm7I2KrnP6nBMCpY-11" target="bltUUm7I2KrnP6nBMCpY-10" edge="1">
          <mxGeometry relative="1" as="geometry" />
        </mxCell>
        <mxCell id="bltUUm7I2KrnP6nBMCpY-11" value="" style="ellipse;whiteSpace=wrap;html=1;aspect=fixed;fillColor=#000000;" parent="1" vertex="1">
          <mxGeometry x="380" y="130" width="20" height="20" as="geometry" />
        </mxCell>
        <mxCell id="bltUUm7I2KrnP6nBMCpY-23" style="edgeStyle=orthogonalEdgeStyle;rounded=0;orthogonalLoop=1;jettySize=auto;html=1;entryX=0.5;entryY=0;entryDx=0;entryDy=0;exitX=0.5;exitY=1;exitDx=0;exitDy=0;" parent="1" source="bltUUm7I2KrnP6nBMCpY-13" target="bltUUm7I2KrnP6nBMCpY-19" edge="1">
          <mxGeometry relative="1" as="geometry">
            <mxPoint x="390" y="840" as="sourcePoint" />
          </mxGeometry>
        </mxCell>
        <mxCell id="bltUUm7I2KrnP6nBMCpY-20" style="edgeStyle=orthogonalEdgeStyle;rounded=0;orthogonalLoop=1;jettySize=auto;html=1;entryX=0.5;entryY=0;entryDx=0;entryDy=0;" parent="1" source="bltUUm7I2KrnP6nBMCpY-19" target="bltUUm7I2KrnP6nBMCpY-9" edge="1">
          <mxGeometry relative="1" as="geometry" />
        </mxCell>
        <mxCell id="bltUUm7I2KrnP6nBMCpY-19" value="&lt;font style=&quot;font-size: 14px;&quot;&gt;Color Estimation&lt;br&gt;&lt;/font&gt;" style="rounded=1;whiteSpace=wrap;html=1;" parent="1" vertex="1">
          <mxGeometry x="332" y="860" width="120" height="60" as="geometry" />
        </mxCell>
        <mxCell id="bltUUm7I2KrnP6nBMCpY-33" value="Feature Extraction" style="swimlane;fillColor=#a20025;strokeColor=#6F0000;fontColor=#ffffff;" parent="1" vertex="1">
          <mxGeometry x="292" y="820" width="200" height="110" as="geometry" />
        </mxCell>
      </root>
    </mxGraphModel>
  </diagram>
</mxfile>
